<svg id="Group_907" data-name="Group 907" xmlns="http://www.w3.org/2000/svg" width="137.388" height="137.388" viewBox="0 0 137.388 137.388">
  <g id="Group_909" data-name="Group 909">
    <path id="Path_1218" data-name="Path 1218" d="M68.7,0a68.694,68.694,0,1,0,68.689,68.7A68.7,68.7,0,0,0,68.7,0m56.626,49.116-18.3-2.153-.762-1.659,18.326,2.2Zm-6.047,6.407a3.073,3.073,0,0,1-1.648,1.452l-2.359,1.082a3.094,3.094,0,0,1-2.174.3,2.934,2.934,0,0,1-1.6-1.772l-.917-2a2.791,2.791,0,0,1-.258-2.3,3.048,3.048,0,0,1,1.638-1.452l2.369-1.082a3.089,3.089,0,0,1,2.174-.3,2.875,2.875,0,0,1,1.586,1.751l.917,2a2.85,2.85,0,0,1,.268,2.318M114.1,37.589l2.369-1.082a3.157,3.157,0,0,1,2.174-.309,2.929,2.929,0,0,1,1.586,1.762l.907,1.978a2.809,2.809,0,0,1,.268,2.318,3.048,3.048,0,0,1-1.638,1.452l-2.369,1.082a3.094,3.094,0,0,1-2.174.3,2.934,2.934,0,0,1-1.6-1.772l-.907-1.978a2.791,2.791,0,0,1-.258-2.3,3.048,3.048,0,0,1,1.638-1.452m-9.065-14.4a3.242,3.242,0,0,1,1.978-.01,4.674,4.674,0,0,1,1.9,1.164l2.359,2.235a4.458,4.458,0,0,1,1.257,1.875,3.122,3.122,0,0,1-.031,1.916,5.149,5.149,0,0,1-1.205,1.9l-5.5,5.789a3.976,3.976,0,0,1-2.823,1.442,4.057,4.057,0,0,1-2.8-1.267L97.8,35.982a5.016,5.016,0,0,1-1.267-1.813,3.15,3.15,0,0,1-.113-1.947,4.573,4.573,0,0,1,1.174-1.947l5.5-5.789a4.589,4.589,0,0,1,1.937-1.3M84.408,23.3l3.461-7.19a4.751,4.751,0,0,1,1.442-1.834,3.273,3.273,0,0,1,1.885-.618,4.831,4.831,0,0,1,2.163.525L96.286,15.6A4.4,4.4,0,0,1,98.058,17a3.038,3.038,0,0,1,.556,1.834A4.949,4.949,0,0,1,98.047,21L94.6,28.195a3.614,3.614,0,0,1-5.305,1.9l-2.926-1.411a5,5,0,0,1-1.772-1.339,3.194,3.194,0,0,1-.7-1.813,4.583,4.583,0,0,1,.515-2.225M77.27,10.868l3.472-.731,2.349.474L79.938,26.32l-2.617-.525,2.647-13.206-3.039-.052ZM12.217,47.551a8.4,8.4,0,0,1,6.129,6.819,52.778,52.778,0,0,1,3.8-9.632,8.413,8.413,0,0,1-2.534-11.146,8.427,8.427,0,0,1,4.162,8.2,52.634,52.634,0,0,1,6.16-8.334,8.41,8.41,0,0,1,.443-11.424,8.388,8.388,0,0,1,1.875,9.024,53.62,53.62,0,0,1,8.128-6.49A8.41,8.41,0,0,1,43.76,13.649a8.415,8.415,0,0,1-.494,9.178,52.426,52.426,0,0,1,9.5-4.151,8.414,8.414,0,0,1,6.1-9.652,8.411,8.411,0,0,1-2.823,8.7,52.47,52.47,0,0,1,12.866-1.6v1.463a51.573,51.573,0,0,0-12.5,1.545A8.4,8.4,0,0,1,63.2,25.269a8.392,8.392,0,0,1-10.044-5.182,50.379,50.379,0,0,0-9.086,3.976,8.41,8.41,0,0,1,8.1,4.151v.01a8.411,8.411,0,0,1-11.043-2.39A51.859,51.859,0,0,0,33.4,32a8.387,8.387,0,0,1,8.859,1.937,8.391,8.391,0,0,1-11.27.556,51,51,0,0,0-5.9,7.973,8.381,8.381,0,0,1,9.086-.453l.01.01a8.4,8.4,0,0,1-10.755,3.441,50.665,50.665,0,0,0-3.647,9.251,8.37,8.37,0,0,1,8.674-2.8h.01a8.419,8.419,0,0,1-9.518,6.119,51.044,51.044,0,0,0-1.123,10.651H16.348a52.687,52.687,0,0,1,1.174-11.033,8.4,8.4,0,0,1-5.305-10.1M10.59,80.906a5.492,5.492,0,0,1-.031-2.647,4.213,4.213,0,0,1,1.195-1.968A7.632,7.632,0,0,1,14,74.87a19.16,19.16,0,0,1,3.162-.979,13.665,13.665,0,0,1,4.4-.361,5.4,5.4,0,0,1,2.987,1.185,4.865,4.865,0,0,1,1.535,2.75l1.432,6.4-15.5,3.451Zm10.6,20.726a2.642,2.642,0,0,1-1.319-.165,3.221,3.221,0,0,1-1.04-.69,4.86,4.86,0,0,1-.752-.979c-.5-.865-.937-1.648-1.319-2.359s-.721-1.36-1.03-1.957-.6-1.143-.845-1.659L16.8,92.711,19.82,97.9a1.673,1.673,0,0,0,.886.814,1.454,1.454,0,0,0,1.205-.216l2.431-1.411L21.159,91.3l1.8-1.04,3.451,5.635,2.359-1.37a1.871,1.871,0,0,0,.742-.69,1.189,1.189,0,0,0,.124-.742,2.3,2.3,0,0,0-.268-.711l-3.018-5.212,1.916-1.113c.371.525.752,1.092,1.154,1.72s.814,1.267,1.216,1.916.793,1.288,1.154,1.885a7.567,7.567,0,0,1,.494,1.04,3.5,3.5,0,0,1,.237,1.267,2.508,2.508,0,0,1-.391,1.329,3.739,3.739,0,0,1-1.4,1.226l-7.922,4.6a4.139,4.139,0,0,1-1.617.587m18.583,2.884c-.371-.391-.762-.793-1.185-1.216s-.814-.814-1.216-1.185a5.939,5.939,0,0,0-1.216-.937,1.937,1.937,0,0,0-1.133-.3,1.661,1.661,0,0,0-1.071.587l-.515.546a1.682,1.682,0,0,0-.556,1.257,1.959,1.959,0,0,0,.7,1.288l1.082,1.03a5.151,5.151,0,0,1,1.762,2.987,3.937,3.937,0,0,1-1.391,3.162l-.567.6a3.954,3.954,0,0,1-3.214,1.514,5.719,5.719,0,0,1-3.358-1.782,16.675,16.675,0,0,1-1.174-1.226c-.381-.433-.742-.865-1.082-1.277s-.608-.793-.814-1.113l1.442-1.5c.422.464.917.989,1.473,1.576s1.082,1.133,1.576,1.607a5.847,5.847,0,0,0,1.164.865,1.629,1.629,0,0,0,1.113.206,2.19,2.19,0,0,0,1.133-.711l.35-.381a1.677,1.677,0,0,0,.587-1.4,2.673,2.673,0,0,0-.865-1.391L31.6,106.175a4.513,4.513,0,0,1-1.308-1.957,3.143,3.143,0,0,1,0-1.947,4.519,4.519,0,0,1,1.082-1.782l.69-.731a4.65,4.65,0,0,1,2.369-1.483,3.393,3.393,0,0,1,2.266.371,9.982,9.982,0,0,1,2.225,1.648c.288.268.577.567.876.876s.6.659.9,1,.567.68.814,1a10.248,10.248,0,0,1,.659.876l-1.442,1.5c-.268-.3-.587-.639-.958-1.03M41.1,121.4l2.38-16.523,2.493,1.226-.567,3.925,5.161,2.534,2.74-2.843,2.452,1.205-11.64,11.96Zm24.332,6.974-6.006-.865a4.551,4.551,0,0,1-3.121-1.525,4.058,4.058,0,0,1-.628-3.193,4.473,4.473,0,0,1,.525-1.607,3.175,3.175,0,0,1,.948-1.061,2.66,2.66,0,0,1,1.236-.464,4.108,4.108,0,0,1-.907-.536,3,3,0,0,1-.773-.865,3.434,3.434,0,0,1-.484-1.226,4.869,4.869,0,0,1,0-1.6,5.1,5.1,0,0,1,.917-2.493,3.111,3.111,0,0,1,1.772-1.133,6.638,6.638,0,0,1,2.534-.052l6.263.907ZM33.51,68.7A35.184,35.184,0,1,1,68.7,103.878,35.184,35.184,0,0,1,33.51,68.7M79.721,127.56l-.659-2.3,4.368-1.246L79.7,111.048l2.565-.731,3.729,12.959,4.378-1.257.659,2.3Zm25.29-11.352L92.7,110.79,99,120.216,96.78,121.7l-8.808-13.206,1.772-1.185,12.3,5.418L95.75,103.3l2.225-1.483,8.808,13.206Zm10.157-9.972-15.74-5.563,1.689-2.194,3.739,1.319,3.492-4.563-2.256-3.245,1.659-2.174,9.467,13.762ZM125.212,88.21l-11.125-4.2a1.789,1.789,0,0,0-.968-.134,1.026,1.026,0,0,0-.659.361,2.047,2.047,0,0,0-.391.69L110.2,89.848,107.947,89l2.1-5.552a4.864,4.864,0,0,1,1-1.689,2.376,2.376,0,0,1,1.483-.731,4.446,4.446,0,0,1,2.091.35l11.527,4.347Zm2.637-11.671a3.555,3.555,0,0,1-.834,1.36,3.75,3.75,0,0,1-1.679.927,8.243,8.243,0,0,1-2.833.165,8.34,8.34,0,0,1-2.8-.639,4.048,4.048,0,0,1-1.555-1.205,3.541,3.541,0,0,1-.649-1.473,5.215,5.215,0,0,1-.082-1.483c.01-.247.051-.546.1-.907s.113-.742.175-1.133.134-.752.2-1.082.124-.6.165-.8l-5.4-.443.216-2.637,15.823,1.3-.536,6.541a6.6,6.6,0,0,1-.309,1.514" fill="#fff"/>
    <path id="Path_1221" data-name="Path 1221" d="M93.018,19.611l-3.183,6.613a1.757,1.757,0,0,1-2.658.917L85.437,26.3a2.17,2.17,0,0,1-1.154-1.082,1.973,1.973,0,0,1,.165-1.586l3.183-6.6a1.767,1.767,0,0,1,2.617-.937L92.174,17a2.032,2.032,0,0,1,1.051,1.02,1.98,1.98,0,0,1-.206,1.586" transform="translate(2.536 0.477)" fill="#fff"/>
    <path id="Path_1223" data-name="Path 1223" d="M106.963,28.429a2,2,0,0,1-.68,1.452L101.236,35.2a2.067,2.067,0,0,1-1.37.731,2.011,2.011,0,0,1-1.442-.68L97.012,33.92a2.168,2.168,0,0,1-.752-1.391,1.888,1.888,0,0,1,.639-1.452l5.058-5.315a1.967,1.967,0,0,1,1.38-.721,2.04,2.04,0,0,1,1.4.628l1.545,1.473a1.97,1.97,0,0,1,.68,1.288" transform="translate(2.9 0.754)" fill="#fff"/>
    <path id="Path_1225" data-name="Path 1225" d="M116.289,40.424a1.641,1.641,0,0,1-.937.773l-1.659.752a1.653,1.653,0,0,1-1.185.185,1.558,1.558,0,0,1-.783-.917l-.649-1.411a1.433,1.433,0,0,1-.144-1.174,1.649,1.649,0,0,1,.9-.752l1.669-.752a1.473,1.473,0,0,1,1.246-.165,1.812,1.812,0,0,1,.711.9l.649,1.411a1.576,1.576,0,0,1,.185,1.154" transform="translate(3.34 1.111)" fill="#fff"/>
    <path id="Path_1228" data-name="Path 1228" d="M114.219,53.283a1.6,1.6,0,0,1-.927.793l-1.669.752a1.578,1.578,0,0,1-1.185.175,1.65,1.65,0,0,1-.793-.948l-.639-1.38a1.437,1.437,0,0,1-.144-1.174,1.66,1.66,0,0,1,.9-.762l1.669-.752a1.447,1.447,0,0,1,1.257-.155,1.929,1.929,0,0,1,.7.886l.639,1.391a1.692,1.692,0,0,1,.2,1.174" transform="translate(3.277 1.499)" fill="#fff"/>
    <path id="Path_1230" data-name="Path 1230" d="M122.593,68.864l-.3,3.647a1.887,1.887,0,0,1-.361,1,1.832,1.832,0,0,1-.968.628,4.623,4.623,0,0,1-1.772.124,5.062,5.062,0,0,1-1.772-.4,1.844,1.844,0,0,1-.886-.8,2.017,2.017,0,0,1-.2-1.123l.288-3.554Z" transform="translate(3.504 2.06)" fill="#fff"/>
    <path id="Path_1233" data-name="Path 1233" d="M111.272,100.644l-7.262-2.75,2.72-3.554Z" transform="translate(3.133 2.842)" fill="#fff"/>
    <path id="Path_1237" data-name="Path 1237" d="M62.073,117.815l-.618,4.285-3.358-.494a1.955,1.955,0,0,1-1.267-.659,2.079,2.079,0,0,1-.278-1.751,2.423,2.423,0,0,1,.731-1.473,1.618,1.618,0,0,1,1.36-.4Z" transform="translate(1.702 3.534)" fill="#fff"/>
    <path id="Path_1238" data-name="Path 1238" d="M63.029,111.306l-.67,4.666-3.554-.515a2.3,2.3,0,0,1-1.092-.433,2.031,2.031,0,0,1-.659-.865,2.6,2.6,0,0,1-.1-1.257,3.271,3.271,0,0,1,.474-1.391,1.648,1.648,0,0,1,.865-.649,2.64,2.64,0,0,1,1.185-.072Z" transform="translate(1.715 3.337)" fill="#fff"/>
    <path id="Path_1240" data-name="Path 1240" d="M47.675,111.138l-5.295,5.686,1.277-7.664Z" transform="translate(1.277 3.288)" fill="#fff"/>
    <path id="Path_1244" data-name="Path 1244" d="M24.233,79.576,13.4,81.987,12.6,78.412a3.066,3.066,0,0,1-.041-1.36,2.031,2.031,0,0,1,.659-1.113,5.33,5.33,0,0,1,1.535-.907,14.977,14.977,0,0,1,2.6-.783,12.608,12.608,0,0,1,3.008-.35,3.847,3.847,0,0,1,2.06.536A2.361,2.361,0,0,1,23.43,76Z" transform="translate(0.377 2.226)" fill="#fff"/>
  </g>
</svg>
