<svg xmlns="http://www.w3.org/2000/svg" width="36.583" height="25.723" viewBox="0 0 36.583 25.723">
  <path id="Icon_awesome-youtube" data-name="Icon awesome-youtube" d="M36.869,8.525a4.6,4.6,0,0,0-3.234-3.255C30.782,4.5,19.342,4.5,19.342,4.5S7.9,4.5,5.049,5.269A4.6,4.6,0,0,0,1.814,8.525C1.05,11.4,1.05,17.387,1.05,17.387s0,5.991.764,8.863a4.528,4.528,0,0,0,3.234,3.2c2.853.769,14.293.769,14.293.769s11.44,0,14.293-.769a4.528,4.528,0,0,0,3.234-3.2c.764-2.871.764-8.863.764-8.863s0-5.991-.764-8.863ZM15.6,22.827V11.948l9.562,5.44L15.6,22.827Z" transform="translate(-1.05 -4.5)" fill="#fff" opacity="0.485"/>
</svg>
