<svg xmlns="http://www.w3.org/2000/svg" width="30.5" height="30.5" viewBox="0 0 30.5 30.5">
  <g id="Icon_feather-instagram" data-name="Icon feather-instagram" transform="translate(-1.5 -1.5)" opacity="0.485">
    <path id="Path_960" data-name="Path 960" d="M9.875,3h13.75A6.875,6.875,0,0,1,30.5,9.875v13.75A6.875,6.875,0,0,1,23.625,30.5H9.875A6.875,6.875,0,0,1,3,23.625V9.875A6.875,6.875,0,0,1,9.875,3Z" fill="none" stroke="#fff" stroke-linecap="round" stroke-linejoin="round" stroke-width="3"/>
    <path id="Path_961" data-name="Path 961" d="M23.005,16.628a5.5,5.5,0,1,1-4.634-4.634,5.5,5.5,0,0,1,4.634,4.634Z" transform="translate(-0.755 -0.745)" fill="none" stroke="#fff" stroke-linecap="round" stroke-linejoin="round" stroke-width="3"/>
    <path id="Path_962" data-name="Path 962" d="M26.25,9.75h0" transform="translate(-1.938 -0.563)" fill="none" stroke="#fff" stroke-linecap="round" stroke-linejoin="round" stroke-width="3"/>
  </g>
</svg>
