<svg xmlns="http://www.w3.org/2000/svg" width="32.628" height="26.5" viewBox="0 0 32.628 26.5">
  <path id="Icon_awesome-twitter" data-name="Icon awesome-twitter" d="M29.274,9.985c.021.29.021.58.021.87,0,8.84-6.729,19.026-19.026,19.026A18.9,18.9,0,0,1,0,26.879a13.834,13.834,0,0,0,1.615.083,13.392,13.392,0,0,0,8.3-2.857,6.7,6.7,0,0,1-6.252-4.638,8.433,8.433,0,0,0,1.263.1,7.073,7.073,0,0,0,1.76-.228A6.688,6.688,0,0,1,1.325,12.78V12.7a6.735,6.735,0,0,0,3.023.849A6.7,6.7,0,0,1,2.277,4.6a19.008,19.008,0,0,0,13.788,7,7.549,7.549,0,0,1-.166-1.532A6.694,6.694,0,0,1,27.473,5.492a13.166,13.166,0,0,0,4.244-1.615,6.669,6.669,0,0,1-2.94,3.685,13.406,13.406,0,0,0,3.851-1.035,14.375,14.375,0,0,1-3.354,3.457Z" transform="translate(0 -3.381)" fill="#7c7c7c"/>
</svg>
