<svg aria-hidden="true" style="position: absolute; width: 0; height: 0; overflow: hidden;" version="1.1" xmlns="http://www.w3.org/2000/svg" xmlns:xlink="http://www.w3.org/1999/xlink">
<defs>
<symbol id="Icon-facebook" viewBox="0 0 17 32">
<path  d="M0 17.184v-6.111h4.929v-3.070c-0.001-0.053-0.002-0.116-0.002-0.179 0-2.122 0.822-4.052 2.165-5.489l-0.004 0.005c1.265-1.437 3.109-2.339 5.163-2.339 0.024 0 0.048 0 0.072 0l-0.004-0h4.896v6.112h-4.896c-0.368 0.023-0.683 0.227-0.861 0.523l-0.003 0.005c-0.241 0.342-0.386 0.767-0.386 1.226 0 0.025 0 0.049 0.001 0.074l-0-0.004v3.136h6.143v6.111h-6.143v14.817h-6.144v-14.816z"></path>
</symbol>
<symbol id="Icon-instagram" viewBox="0 0 32 32">
<path fill="none" stroke-linejoin="round" stroke-linecap="round" stroke-miterlimit="4" stroke-width="3.1475" d="M8.787 1.574h14.426c3.984 0 7.213 3.229 7.213 7.213v0 14.426c0 3.984-3.229 7.213-7.213 7.213v0h-14.426c-3.984 0-7.213-3.229-7.213-7.213v0-14.426c0-3.984 3.229-7.213 7.213-7.213v0z"></path>
<path fill="none" stroke-linejoin="round" stroke-linecap="round" stroke-miterlimit="4" stroke-width="3.1475" d="M21.77 15.090c0.040 0.254 0.062 0.548 0.062 0.846 0 3.187-2.584 5.77-5.771 5.77s-5.771-2.584-5.771-5.771c0-3.187 2.584-5.771 5.771-5.771 0.299 0 0.592 0.023 0.878 0.066l-0.032-0.004c2.516 0.383 4.479 2.346 4.858 4.83l0.004 0.032z"></path>
<path fill="none" stroke-linejoin="round" stroke-linecap="round" stroke-miterlimit="4" stroke-width="3.1475" d="M23.934 8.065v0"></path>
</symbol>
<symbol id="Icon-twitter" viewBox="0 0 39 32">
<path d="M35.35 7.975c0.025 0.35 0.025 0.7 0.025 1.051 0 10.675-8.126 22.975-22.975 22.975-0.017 0-0.038 0-0.058 0-4.585 0-8.854-1.352-12.43-3.679l0.088 0.054c0.549 0.064 1.186 0.101 1.831 0.101 0.042 0 0.084-0 0.126-0l-0.006 0c0.011 0 0.025 0 0.039 0 3.783 0 7.263-1.299 10.018-3.476l-0.034 0.026c-3.518-0.067-6.482-2.369-7.533-5.543l-0.016-0.057c0.457 0.075 0.985 0.119 1.523 0.121h0.002c0.756-0.002 1.488-0.103 2.185-0.289l-0.060 0.014c-3.719-0.773-6.474-4.022-6.474-7.915 0-0.002 0-0.003 0-0.005v0-0.097c1.052 0.598 2.302 0.972 3.635 1.025l0.016 0.001c-2.184-1.472-3.602-3.936-3.602-6.731 0-1.502 0.409-2.908 1.122-4.113l-0.021 0.038c4.001 4.898 9.919 8.1 16.593 8.45l0.057 0.002c-0.124-0.555-0.197-1.193-0.2-1.847v-0.003c0.004-4.461 3.622-8.076 8.083-8.076 2.322 0 4.415 0.979 5.889 2.546l0.004 0.004c1.932-0.38 3.65-1.057 5.196-1.99l-0.071 0.040c-0.625 1.898-1.881 3.446-3.514 4.43l-0.036 0.020c1.723-0.2 3.295-0.641 4.753-1.291l-0.103 0.041c-1.127 1.626-2.468 3.007-4.003 4.141l-0.047 0.033z"></path>
</symbol>
<symbol id="Icon-youtube" viewBox="0 0 46 32">
<path  d="M44.56 5.007c-0.537-1.974-2.054-3.499-3.983-4.040l-0.040-0.010c-3.549-0.958-17.781-0.958-17.781-0.958s-14.234 0-17.781 0.957c-1.97 0.55-3.487 2.076-4.015 4.010l-0.009 0.040c-0.95 3.577-0.95 11.025-0.95 11.025s0 7.453 0.95 11.026c0.542 1.955 2.060 3.46 3.984 3.972l0.039 0.009c3.549 0.957 17.781 0.957 17.781 0.957s14.232 0 17.781-0.957c1.963-0.521 3.482-2.026 4.014-3.941l0.009-0.040c0.95-3.572 0.95-11.026 0.95-11.026s0-7.453-0.95-11.026zM18.101 22.799v-13.534l11.895 6.768-11.895 6.766z"></path>
</symbol>
</defs>
</svg>
